<?xml version="1.0" encoding="UTF-8" standalone="no"?><!DOCTYPE svg PUBLIC "-//W3C//DTD SVG 1.1//EN" "http://www.w3.org/Graphics/SVG/1.1/DTD/svg11.dtd"><!-- Generated by graphviz version 2.40.1 (20161225.0304)
 --><!-- Title: src Pages: 1 --><svg xmlns="http://www.w3.org/2000/svg" xmlns:xlink="http://www.w3.org/1999/xlink" width="1554pt" height="1283pt" viewBox="0.00 0.00 1553.50 1283.00">
<g id="graph0" class="graph" transform="scale(1 1) rotate(0) translate(4 1279)">
<title>src</title>
<polygon fill="#ffffff" stroke="transparent" points="-4,4 -4,-1279 1549.5,-1279 1549.5,4 -4,4"/>
<!-- App -->
<g id="node1" class="node">
<title>App</title>
<polygon fill="none" stroke="#000000" points="0,-1048.1 0,-1139.3 147.5384,-1139.3 147.5384,-1048.1 0,-1048.1"/>
<text text-anchor="middle" x="73.7692" y="-1122.7" font-family="Times,serif" font-size="14.00" fill="#000000">App</text>
<polyline fill="none" stroke="#000000" points="0,-1114.5 147.5384,-1114.5 "/>
<text text-anchor="start" x="8" y="-1097.9" font-family="Times,serif" font-size="14.00" fill="#000000">+ App() : </text>
<polyline fill="none" stroke="#000000" points="0,-1089.7 147.5384,-1089.7 "/>
<text text-anchor="start" x="8" y="-1073.1" font-family="Times,serif" font-size="14.00" fill="#000000">+ start(Stage) : void</text>
<text text-anchor="start" x="8" y="-1056.3" font-family="Times,serif" font-size="14.00" fill="#000000"> + main(String[]) : void</text>
</g>
<!-- DBC -->
<g id="node2" class="node">
<title>DBC</title>
<polygon fill="none" stroke="#000000" points="787.9579,-18.5 787.9579,-160.1 1085.5805,-160.1 1085.5805,-18.5 787.9579,-18.5"/>
<text text-anchor="middle" x="936.7692" y="-143.5" font-family="Times,serif" font-size="14.00" fill="#000000">DBC</text>
<polyline fill="none" stroke="#000000" points="787.9579,-135.3 1085.5805,-135.3 "/>
<text text-anchor="start" x="795.9579" y="-118.7" font-family="Times,serif" font-size="14.00" fill="#000000">+ DBC() : </text>
<polyline fill="none" stroke="#000000" points="787.9579,-110.5 1085.5805,-110.5 "/>
<text text-anchor="start" x="795.9579" y="-93.9" font-family="Times,serif" font-size="14.00" fill="#000000">+ retrieveData(String) : ResultSet</text>
<text text-anchor="start" x="795.9579" y="-77.1" font-family="Times,serif" font-size="14.00" fill="#000000"> + recordTransation(String) : void</text>
<text text-anchor="start" x="795.9579" y="-60.3" font-family="Times,serif" font-size="14.00" fill="#000000"> + insertMemberData(String, String, String) : void</text>
<text text-anchor="start" x="795.9579" y="-43.5" font-family="Times,serif" font-size="14.00" fill="#000000"> + insertItemData(String, int, int) : void</text>
<text text-anchor="start" x="795.9579" y="-26.7" font-family="Times,serif" font-size="14.00" fill="#000000"> + setConnection() : void</text>
</g>
<!-- DBC&#45;&gt;DBC -->
<g id="edge1" class="edge">
<title>DBC-&gt;DBC</title>
<path fill="none" stroke="#595959" stroke-dasharray="5,2" d="M798.3113,-160.4757C798.3113,-170.7874 798.3113,-178 798.3113,-178 798.3113,-178 779.0303,-178 779.0303,-178 779.0303,-178 779.0303,0 779.0303,0 779.0303,0 936.7692,0 936.7692,0 936.7692,0 936.7692,-8.0712 936.7692,-8.0712"/>
<polygon fill="#595959" stroke="#595959" points="936.7692,-18.0712 932.2693,-8.0711 936.7692,-13.0712 936.7693,-8.0712 936.7693,-8.0712 936.7693,-8.0712 936.7692,-13.0712 941.2693,-8.0712 936.7692,-18.0712 936.7692,-18.0712"/>
</g>
<!-- itemsData -->
<g id="node3" class="node">
<title>itemsData</title>
<polygon fill="none" stroke="#000000" points="1231.8575,-474.5 1231.8575,-657.7 1475.6809,-657.7 1475.6809,-474.5 1231.8575,-474.5"/>
<text text-anchor="middle" x="1353.7692" y="-641.1" font-family="Times,serif" font-size="14.00" fill="#000000">itemsData</text>
<polyline fill="none" stroke="#000000" points="1231.8575,-632.9 1475.6809,-632.9 "/>
<text text-anchor="start" x="1239.8575" y="-616.3" font-family="Times,serif" font-size="14.00" fill="#000000">+ itemsData() : </text>
<polyline fill="none" stroke="#000000" points="1231.8575,-608.1 1475.6809,-608.1 "/>
<text text-anchor="start" x="1239.8575" y="-591.5" font-family="Times,serif" font-size="14.00" fill="#000000">- retrieveItemPrice(ResultSet) : void</text>
<text text-anchor="start" x="1239.8575" y="-574.7" font-family="Times,serif" font-size="14.00" fill="#000000"> - retrieveItemID(ResultSet) : void</text>
<text text-anchor="start" x="1239.8575" y="-557.9" font-family="Times,serif" font-size="14.00" fill="#000000"> - retrieveItemQuantity(ResultSet) : void</text>
<text text-anchor="start" x="1239.8575" y="-541.1" font-family="Times,serif" font-size="14.00" fill="#000000"> + insertItem(String, int, int) : void</text>
<text text-anchor="start" x="1239.8575" y="-524.3" font-family="Times,serif" font-size="14.00" fill="#000000"> - retrieveItemName(ResultSet) : void</text>
<text text-anchor="start" x="1239.8575" y="-507.5" font-family="Times,serif" font-size="14.00" fill="#000000"> + getItemDetails(String) : String[]</text>
<polyline fill="none" stroke="#000000" points="1231.8575,-499.3 1475.6809,-499.3 "/>
<text text-anchor="start" x="1239.8575" y="-482.7" font-family="Times,serif" font-size="14.00" fill="#000000">allItems : ResultSet</text>
</g>
<!-- itemsData&#45;&gt;DBC -->
<g id="edge2" class="edge">
<title>itemsData-&gt;DBC</title>
<path fill="none" stroke="#595959" stroke-dasharray="5,2" d="M1231.7687,-486C1154.4816,-486 1069.0151,-486 1069.0151,-486 1069.0151,-486 1069.0151,-170.222 1069.0151,-170.222"/>
<polygon fill="#595959" stroke="#595959" points="1069.0151,-160.222 1073.5152,-170.222 1069.0152,-165.222 1069.0152,-170.222 1069.0152,-170.222 1069.0152,-170.222 1069.0152,-165.222 1064.5152,-170.2221 1069.0151,-160.222 1069.0151,-160.222"/>
<text text-anchor="middle" x="1198.1346" y="-330.5" font-family="Times,serif" font-size="14.00" fill="#000000">«create»</text>
</g>
<!-- itemsData&#45;&gt;itemsData -->
<g id="edge3" class="edge">
<title>itemsData-&gt;itemsData</title>
<path fill="none" stroke="#595959" stroke-dasharray="5,2" d="M1346.1571,-658.0458C1346.1571,-663.599 1346.1571,-667 1346.1571,-667 1346.1571,-667 1220.4696,-667 1220.4696,-667 1220.4696,-667 1220.4696,-461 1220.4696,-461 1220.4696,-461 1237.9601,-461 1237.9601,-461 1237.9601,-461 1237.9601,-464.311 1237.9601,-464.311"/>
<polygon fill="#595959" stroke="#595959" points="1237.9601,-474.311 1233.4601,-464.3109 1237.9601,-469.311 1237.9601,-464.311 1237.9601,-464.311 1237.9601,-464.311 1237.9601,-469.311 1242.4601,-464.311 1237.9601,-474.311 1237.9601,-474.311"/>
</g>
<!-- loadingController -->
<g id="node4" class="node">
<title>loadingController</title>
<polygon fill="none" stroke="#000000" points="435.0361,-739.5 435.0361,-813.9 626.5023,-813.9 626.5023,-739.5 435.0361,-739.5"/>
<text text-anchor="middle" x="530.7692" y="-797.3" font-family="Times,serif" font-size="14.00" fill="#000000">loadingController</text>
<polyline fill="none" stroke="#000000" points="435.0361,-789.1 626.5023,-789.1 "/>
<text text-anchor="start" x="443.0361" y="-772.5" font-family="Times,serif" font-size="14.00" fill="#000000">+ loadingController() : </text>
<polyline fill="none" stroke="#000000" points="435.0361,-764.3 626.5023,-764.3 "/>
<text text-anchor="start" x="443.0361" y="-747.7" font-family="Times,serif" font-size="14.00" fill="#000000">+ startApp(MouseEvent) : void</text>
</g>
<!-- loginData -->
<g id="node7" class="node">
<title>loginData</title>
<polygon fill="none" stroke="#000000" points="230.7384,-247.5 230.7384,-421.9 456.8,-421.9 456.8,-247.5 230.7384,-247.5"/>
<text text-anchor="middle" x="343.7692" y="-405.3" font-family="Times,serif" font-size="14.00" fill="#000000">loginData</text>
<polyline fill="none" stroke="#000000" points="230.7384,-397.1 456.8,-397.1 "/>
<text text-anchor="start" x="238.7384" y="-380.5" font-family="Times,serif" font-size="14.00" fill="#000000">+ loginData() : </text>
<polyline fill="none" stroke="#000000" points="230.7384,-372.3 456.8,-372.3 "/>
<text text-anchor="start" x="238.7384" y="-355.7" font-family="Times,serif" font-size="14.00" fill="#000000">- password : String[]</text>
<text text-anchor="start" x="238.7384" y="-338.9" font-family="Times,serif" font-size="14.00" fill="#000000"> - username : String[]</text>
<polyline fill="none" stroke="#000000" points="230.7384,-330.7 456.8,-330.7 "/>
<text text-anchor="start" x="238.7384" y="-314.1" font-family="Times,serif" font-size="14.00" fill="#000000">+ retrieveUsername(ResultSet) : void</text>
<text text-anchor="start" x="238.7384" y="-297.3" font-family="Times,serif" font-size="14.00" fill="#000000"> + retrievePassword(ResultSet) : void</text>
<polyline fill="none" stroke="#000000" points="230.7384,-289.1 456.8,-289.1 "/>
<text text-anchor="start" x="238.7384" y="-272.5" font-family="Times,serif" font-size="14.00" fill="#000000">password : String[]</text>
<text text-anchor="start" x="238.7384" y="-255.7" font-family="Times,serif" font-size="14.00" fill="#000000"> username : String[]</text>
</g>
<!-- loadingController&#45;&gt;loginData -->
<g id="edge4" class="edge">
<title>loadingController-&gt;loginData</title>
<path fill="none" stroke="#595959" stroke-dasharray="5,2" d="M442.2907,-739.3963C442.2907,-739.3963 442.2907,-432.2251 442.2907,-432.2251"/>
<polygon fill="#595959" stroke="#595959" points="442.2907,-422.2251 446.7908,-432.225 442.2908,-427.2251 442.2908,-432.2251 442.2908,-432.2251 442.2908,-432.2251 442.2908,-427.2251 437.7908,-432.2251 442.2907,-422.2251 442.2907,-422.2251"/>
<text text-anchor="middle" x="471.1346" y="-561.9" font-family="Times,serif" font-size="14.00" fill="#000000">«create»</text>
</g>
<!-- membersData -->
<g id="node10" class="node">
<title>membersData</title>
<polygon fill="none" stroke="#000000" points="492.3632,-213.9 492.3632,-455.5 761.1752,-455.5 761.1752,-213.9 492.3632,-213.9"/>
<text text-anchor="middle" x="626.7692" y="-438.9" font-family="Times,serif" font-size="14.00" fill="#000000">membersData</text>
<polyline fill="none" stroke="#000000" points="492.3632,-430.7 761.1752,-430.7 "/>
<text text-anchor="start" x="500.3632" y="-414.1" font-family="Times,serif" font-size="14.00" fill="#000000">+ membersData() : </text>
<polyline fill="none" stroke="#000000" points="492.3632,-405.9 761.1752,-405.9 "/>
<text text-anchor="start" x="500.3632" y="-389.3" font-family="Times,serif" font-size="14.00" fill="#000000">- member_address : ArrayList&lt;String&gt;</text>
<text text-anchor="start" x="500.3632" y="-372.5" font-family="Times,serif" font-size="14.00" fill="#000000"> - member_contact : ArrayList&lt;String&gt;</text>
<text text-anchor="start" x="500.3632" y="-355.7" font-family="Times,serif" font-size="14.00" fill="#000000"> - member_names : ArrayList&lt;String&gt;</text>
<polyline fill="none" stroke="#000000" points="492.3632,-347.5 761.1752,-347.5 "/>
<text text-anchor="start" x="500.3632" y="-330.9" font-family="Times,serif" font-size="14.00" fill="#000000">+ retrieveMember_names(ResultSet) : void</text>
<text text-anchor="start" x="500.3632" y="-314.1" font-family="Times,serif" font-size="14.00" fill="#000000"> + getMemberDetails(String) : String[]</text>
<text text-anchor="start" x="500.3632" y="-297.3" font-family="Times,serif" font-size="14.00" fill="#000000"> + retrieveMember_address(ResultSet) : void</text>
<text text-anchor="start" x="500.3632" y="-280.5" font-family="Times,serif" font-size="14.00" fill="#000000"> + retrieveMember_contact(ResultSet) : void</text>
<polyline fill="none" stroke="#000000" points="492.3632,-272.3 761.1752,-272.3 "/>
<text text-anchor="start" x="500.3632" y="-255.7" font-family="Times,serif" font-size="14.00" fill="#000000">member_contact : ArrayList&lt;String&gt;</text>
<text text-anchor="start" x="500.3632" y="-238.9" font-family="Times,serif" font-size="14.00" fill="#000000"> member_names : ArrayList&lt;String&gt;</text>
<text text-anchor="start" x="500.3632" y="-222.1" font-family="Times,serif" font-size="14.00" fill="#000000"> member_address : ArrayList&lt;String&gt;</text>
</g>
<!-- loadingController&#45;&gt;membersData -->
<g id="edge5" class="edge">
<title>loadingController-&gt;membersData</title>
<path fill="none" stroke="#595959" stroke-dasharray="5,2" d="M559.4327,-739.3963C559.4327,-739.3963 559.4327,-465.673 559.4327,-465.673"/>
<polygon fill="#595959" stroke="#595959" points="559.4327,-455.673 563.9328,-465.673 559.4328,-460.673 559.4328,-465.673 559.4328,-465.673 559.4328,-465.673 559.4328,-460.673 554.9328,-465.6731 559.4327,-455.673 559.4327,-455.673"/>
<text text-anchor="middle" x="604.1346" y="-561.9" font-family="Times,serif" font-size="14.00" fill="#000000">«create»</text>
</g>
<!-- login -->
<g id="node5" class="node">
<title>login</title>
<polygon fill="none" stroke="#000000" points="152.4898,-739.5 152.4898,-813.9 417.0486,-813.9 417.0486,-739.5 152.4898,-739.5"/>
<text text-anchor="middle" x="284.7692" y="-797.3" font-family="Times,serif" font-size="14.00" fill="#000000">login</text>
<polyline fill="none" stroke="#000000" points="152.4898,-789.1 417.0486,-789.1 "/>
<text text-anchor="start" x="160.4898" y="-772.5" font-family="Times,serif" font-size="14.00" fill="#000000">+ login() : </text>
<polyline fill="none" stroke="#000000" points="152.4898,-764.3 417.0486,-764.3 "/>
<text text-anchor="start" x="160.4898" y="-747.7" font-family="Times,serif" font-size="14.00" fill="#000000">+ verifyCredentials(String, String) : boolean</text>
</g>
<!-- login&#45;&gt;loginData -->
<g id="edge6" class="edge">
<title>login-&gt;loginData</title>
<path fill="none" stroke="#000082" d="M323.8935,-739.3963C323.8935,-739.3963 323.8935,-432.2251 323.8935,-432.2251"/>
<polygon fill="#000082" stroke="#000082" points="327.3936,-432.2251 323.8935,-422.2251 320.3936,-432.2251 327.3936,-432.2251"/>
</g>
<!-- loginController -->
<g id="node6" class="node">
<title>loginController</title>
<polygon fill="none" stroke="#000000" points="165.1129,-1039.7 165.1129,-1147.7 404.4255,-1147.7 404.4255,-1039.7 165.1129,-1039.7"/>
<text text-anchor="middle" x="284.7692" y="-1131.1" font-family="Times,serif" font-size="14.00" fill="#000000">loginController</text>
<polyline fill="none" stroke="#000000" points="165.1129,-1122.9 404.4255,-1122.9 "/>
<text text-anchor="start" x="173.1129" y="-1106.3" font-family="Times,serif" font-size="14.00" fill="#000000">+ loginController() : </text>
<polyline fill="none" stroke="#000000" points="165.1129,-1098.1 404.4255,-1098.1 "/>
<text text-anchor="start" x="173.1129" y="-1081.5" font-family="Times,serif" font-size="14.00" fill="#000000">+ enterPressed(KeyEvent) : void</text>
<text text-anchor="start" x="173.1129" y="-1064.7" font-family="Times,serif" font-size="14.00" fill="#000000"> + loginBtnClicked(ActionEvent) : void</text>
<text text-anchor="start" x="173.1129" y="-1047.9" font-family="Times,serif" font-size="14.00" fill="#000000"> + exit(MouseEvent) : void</text>
</g>
<!-- loginController&#45;&gt;login -->
<g id="edge7" class="edge">
<title>loginController-&gt;login</title>
<path fill="none" stroke="#595959" stroke-dasharray="5,2" d="M284.7692,-1039.5659C284.7692,-1039.5659 284.7692,-824.2202 284.7692,-824.2202"/>
<polygon fill="#595959" stroke="#595959" points="284.7692,-814.2202 289.2693,-824.2202 284.7692,-819.2202 284.7693,-824.2202 284.7693,-824.2202 284.7693,-824.2202 284.7692,-819.2202 280.2693,-824.2203 284.7692,-814.2202 284.7692,-814.2202"/>
<text text-anchor="middle" x="313.1346" y="-899.4" font-family="Times,serif" font-size="14.00" fill="#000000">«create»</text>
</g>
<!-- loginData&#45;&gt;DBC -->
<g id="edge8" class="edge">
<title>loginData-&gt;DBC</title>
<path fill="none" stroke="#595959" stroke-dasharray="5,2" d="M306.0923,-247.3836C306.0923,-176.7623 306.0923,-89 306.0923,-89 306.0923,-89 777.707,-89 777.707,-89"/>
<polygon fill="#595959" stroke="#595959" points="787.707,-89 777.7071,-93.5001 782.707,-89 777.707,-89.0001 777.707,-89.0001 777.707,-89.0001 782.707,-89 777.707,-84.5001 787.707,-89 787.707,-89"/>
<text text-anchor="middle" x="474.1346" y="-182.8" font-family="Times,serif" font-size="14.00" fill="#000000">«create»</text>
</g>
<!-- loginData&#45;&gt;loginData -->
<g id="edge9" class="edge">
<title>loginData-&gt;loginData</title>
<path fill="none" stroke="#595959" stroke-dasharray="5,2" d="M449.5454,-422.2424C449.5454,-432.2759 449.5454,-439 449.5454,-439 449.5454,-439 474.5816,-439 474.5816,-439 474.5816,-439 474.5816,-230 474.5816,-230 474.5816,-230 381.4461,-230 381.4461,-230 381.4461,-230 381.4461,-237.2891 381.4461,-237.2891"/>
<polygon fill="#595959" stroke="#595959" points="381.4461,-247.2891 376.9462,-237.289 381.4462,-242.2891 381.4462,-237.2891 381.4462,-237.2891 381.4462,-237.2891 381.4462,-242.2891 385.9462,-237.2891 381.4461,-247.2891 381.4461,-247.2891"/>
</g>
<!-- mainController -->
<g id="node8" class="node">
<title>mainController</title>
<polygon fill="none" stroke="#000000" points="946.8001,-930.5 946.8001,-1256.9 1218.7383,-1256.9 1218.7383,-930.5 946.8001,-930.5"/>
<text text-anchor="middle" x="1082.7692" y="-1240.3" font-family="Times,serif" font-size="14.00" fill="#000000">mainController</text>
<polyline fill="none" stroke="#000000" points="946.8001,-1232.1 1218.7383,-1232.1 "/>
<text text-anchor="start" x="954.8001" y="-1215.5" font-family="Times,serif" font-size="14.00" fill="#000000">+ mainController() : </text>
<polyline fill="none" stroke="#000000" points="946.8001,-1207.3 1218.7383,-1207.3 "/>
<text text-anchor="start" x="954.8001" y="-1190.7" font-family="Times,serif" font-size="14.00" fill="#000000">+ checkItemInput() : boolean</text>
<text text-anchor="start" x="954.8001" y="-1173.9" font-family="Times,serif" font-size="14.00" fill="#000000"> + closePayment(MouseEvent) : void</text>
<text text-anchor="start" x="954.8001" y="-1157.1" font-family="Times,serif" font-size="14.00" fill="#000000"> + exportAllMembers(ActionEvent) : void</text>
<text text-anchor="start" x="954.8001" y="-1140.3" font-family="Times,serif" font-size="14.00" fill="#000000"> + returnBtnClicked() : void</text>
<text text-anchor="start" x="954.8001" y="-1123.5" font-family="Times,serif" font-size="14.00" fill="#000000"> + addItemToDB(ActionEvent) : void</text>
<text text-anchor="start" x="954.8001" y="-1106.7" font-family="Times,serif" font-size="14.00" fill="#000000"> + exportAllItems(ActionEvent) : void</text>
<text text-anchor="start" x="954.8001" y="-1089.9" font-family="Times,serif" font-size="14.00" fill="#000000"> + saleBtnClicked() : void</text>
<text text-anchor="start" x="954.8001" y="-1073.1" font-family="Times,serif" font-size="14.00" fill="#000000"> + proceedToPayment(ActionEvent) : void</text>
<text text-anchor="start" x="954.8001" y="-1056.3" font-family="Times,serif" font-size="14.00" fill="#000000"> + reportBtnClicked() : void</text>
<text text-anchor="start" x="954.8001" y="-1039.5" font-family="Times,serif" font-size="14.00" fill="#000000"> + recordTransaction(ActionEvent) : void</text>
<text text-anchor="start" x="954.8001" y="-1022.7" font-family="Times,serif" font-size="14.00" fill="#000000"> + createMember() : void</text>
<text text-anchor="start" x="954.8001" y="-1005.9" font-family="Times,serif" font-size="14.00" fill="#000000"> + logout(ActionEvent) : void</text>
<text text-anchor="start" x="954.8001" y="-989.1" font-family="Times,serif" font-size="14.00" fill="#000000"> + exportAllTransactions(ActionEvent) : void</text>
<text text-anchor="start" x="954.8001" y="-972.3" font-family="Times,serif" font-size="14.00" fill="#000000"> + addItemToCart(ActionEvent) : void</text>
<text text-anchor="start" x="954.8001" y="-955.5" font-family="Times,serif" font-size="14.00" fill="#000000"> + viewAllItems(ActionEvent) : void</text>
<text text-anchor="start" x="954.8001" y="-938.7" font-family="Times,serif" font-size="14.00" fill="#000000"> + membershipBtnClicked() : void</text>
</g>
<!-- mainController&#45;&gt;itemsData -->
<g id="edge10" class="edge">
<title>mainController-&gt;itemsData</title>
<path fill="none" stroke="#595959" stroke-dasharray="5,2" d="M1191.086,-930.4397C1191.086,-802.1453 1191.086,-645 1191.086,-645 1191.086,-645 1221.7182,-645 1221.7182,-645"/>
<polygon fill="#595959" stroke="#595959" points="1231.7182,-645 1221.7183,-649.5001 1226.7182,-645 1221.7182,-645.0001 1221.7182,-645.0001 1221.7182,-645.0001 1226.7182,-645 1221.7182,-640.5001 1231.7182,-645 1231.7182,-645"/>
<text text-anchor="middle" x="1517.1346" y="-899.4" font-family="Times,serif" font-size="14.00" fill="#000000">«create»</text>
</g>
<!-- mainController&#45;&gt;mainController -->
<g id="edge11" class="edge">
<title>mainController-&gt;mainController</title>
<path fill="none" stroke="#595959" stroke-dasharray="5,2" d="M1082.7692,-1256.9534C1082.7692,-1268.084 1082.7692,-1275 1082.7692,-1275 1082.7692,-1275 930.7859,-1275 930.7859,-1275 930.7859,-1275 930.7859,-903 930.7859,-903 930.7859,-903 960.9888,-903 960.9888,-903 960.9888,-903 960.9888,-920.3227 960.9888,-920.3227"/>
<polygon fill="#595959" stroke="#595959" points="960.9888,-930.3227 956.4889,-920.3226 960.9889,-925.3227 960.9889,-920.3227 960.9889,-920.3227 960.9889,-920.3227 960.9889,-925.3227 965.4889,-920.3227 960.9888,-930.3227 960.9888,-930.3227"/>
</g>
<!-- member -->
<g id="node9" class="node">
<title>member</title>
<polygon fill="none" stroke="#000000" points="644.7668,-739.5 644.7668,-813.9 914.7716,-813.9 914.7716,-739.5 644.7668,-739.5"/>
<text text-anchor="middle" x="779.7692" y="-797.3" font-family="Times,serif" font-size="14.00" fill="#000000">member</text>
<polyline fill="none" stroke="#000000" points="644.7668,-789.1 914.7716,-789.1 "/>
<text text-anchor="start" x="652.7668" y="-772.5" font-family="Times,serif" font-size="14.00" fill="#000000">+ member() : </text>
<polyline fill="none" stroke="#000000" points="644.7668,-764.3 914.7716,-764.3 "/>
<text text-anchor="start" x="652.7668" y="-747.7" font-family="Times,serif" font-size="14.00" fill="#000000">+ createMember(String, String, String) : void</text>
</g>
<!-- mainController&#45;&gt;member -->
<g id="edge12" class="edge">
<title>mainController-&gt;member</title>
<path fill="none" stroke="#595959" stroke-dasharray="5,2" d="M951.5297,-930.1968C951.5297,-852.3528 951.5297,-776 951.5297,-776 951.5297,-776 925.1037,-776 925.1037,-776"/>
<polygon fill="#595959" stroke="#595959" points="915.1037,-776 925.1037,-771.5001 920.1037,-776 925.1037,-776.0001 925.1037,-776.0001 925.1037,-776.0001 920.1037,-776 925.1037,-780.5001 915.1037,-776 915.1037,-776"/>
<text text-anchor="middle" x="850.1346" y="-899.4" font-family="Times,serif" font-size="14.00" fill="#000000">«create»</text>
</g>
<!-- oneItem -->
<g id="node11" class="node">
<title>oneItem</title>
<polygon fill="none" stroke="#000000" points="1209.0817,-676.7 1209.0817,-876.7 1460.4567,-876.7 1460.4567,-676.7 1209.0817,-676.7"/>
<text text-anchor="middle" x="1334.7692" y="-860.1" font-family="Times,serif" font-size="14.00" fill="#000000">oneItem</text>
<polyline fill="none" stroke="#000000" points="1209.0817,-851.9 1460.4567,-851.9 "/>
<text text-anchor="start" x="1217.0817" y="-835.3" font-family="Times,serif" font-size="14.00" fill="#000000">+ oneItem(String, String, String, String) : </text>
<polyline fill="none" stroke="#000000" points="1209.0817,-827.1 1460.4567,-827.1 "/>
<text text-anchor="start" x="1217.0817" y="-810.5" font-family="Times,serif" font-size="14.00" fill="#000000">- price : SimpleStringProperty</text>
<text text-anchor="start" x="1217.0817" y="-793.7" font-family="Times,serif" font-size="14.00" fill="#000000"> - name : SimpleStringProperty</text>
<text text-anchor="start" x="1217.0817" y="-776.9" font-family="Times,serif" font-size="14.00" fill="#000000"> - id : SimpleStringProperty</text>
<text text-anchor="start" x="1217.0817" y="-760.1" font-family="Times,serif" font-size="14.00" fill="#000000"> - quantity : SimpleStringProperty</text>
<polyline fill="none" stroke="#000000" points="1209.0817,-751.9 1460.4567,-751.9 "/>
<text text-anchor="start" x="1217.0817" y="-735.3" font-family="Times,serif" font-size="14.00" fill="#000000">quantity : String</text>
<text text-anchor="start" x="1217.0817" y="-718.5" font-family="Times,serif" font-size="14.00" fill="#000000"> price : String</text>
<text text-anchor="start" x="1217.0817" y="-701.7" font-family="Times,serif" font-size="14.00" fill="#000000"> name : String</text>
<text text-anchor="start" x="1217.0817" y="-684.9" font-family="Times,serif" font-size="14.00" fill="#000000"> id : String</text>
</g>
<!-- mainController&#45;&gt;oneItem -->
<g id="edge13" class="edge">
<title>mainController-&gt;oneItem</title>
<path fill="none" stroke="#595959" stroke-dasharray="5,2" d="M1213.91,-930.0929C1213.91,-930.0929 1213.91,-886.8172 1213.91,-886.8172"/>
<polygon fill="#595959" stroke="#595959" points="1213.91,-876.8172 1218.4101,-886.8171 1213.91,-881.8172 1213.9101,-886.8172 1213.9101,-886.8172 1213.9101,-886.8172 1213.91,-881.8172 1209.4101,-886.8172 1213.91,-876.8172 1213.91,-876.8172"/>
<text text-anchor="middle" x="1363.1346" y="-899.4" font-family="Times,serif" font-size="14.00" fill="#000000">«create»</text>
</g>
<!-- report -->
<g id="node12" class="node">
<title>report</title>
<polygon fill="none" stroke="#000000" points="829.3713,-512.1 829.3713,-620.1 1044.1671,-620.1 1044.1671,-512.1 829.3713,-512.1"/>
<text text-anchor="middle" x="936.7692" y="-603.5" font-family="Times,serif" font-size="14.00" fill="#000000">report</text>
<polyline fill="none" stroke="#000000" points="829.3713,-595.3 1044.1671,-595.3 "/>
<text text-anchor="start" x="837.3713" y="-578.7" font-family="Times,serif" font-size="14.00" fill="#000000">+ report() : </text>
<polyline fill="none" stroke="#000000" points="829.3713,-570.5 1044.1671,-570.5 "/>
<text text-anchor="start" x="837.3713" y="-553.9" font-family="Times,serif" font-size="14.00" fill="#000000">+ generate(ResultSet, String) : void</text>
<text text-anchor="start" x="837.3713" y="-537.1" font-family="Times,serif" font-size="14.00" fill="#000000"> + convertToPdf(String) : void</text>
<text text-anchor="start" x="837.3713" y="-520.3" font-family="Times,serif" font-size="14.00" fill="#000000"> + generateFullData(int) : void</text>
</g>
<!-- mainController&#45;&gt;report -->
<g id="edge14" class="edge">
<title>mainController-&gt;report</title>
<path fill="none" stroke="#595959" stroke-dasharray="5,2" d="M956.2593,-930.3772C956.2593,-930.3772 956.2593,-630.3054 956.2593,-630.3054"/>
<polygon fill="#595959" stroke="#595959" points="956.2593,-620.3054 960.7594,-630.3053 956.2593,-625.3054 956.2594,-630.3054 956.2594,-630.3054 956.2594,-630.3054 956.2593,-625.3054 951.7594,-630.3054 956.2593,-620.3054 956.2593,-620.3054"/>
<text text-anchor="middle" x="971.1346" y="-899.4" font-family="Times,serif" font-size="14.00" fill="#000000">«create»</text>
</g>
<!-- saleLineItems -->
<g id="node13" class="node">
<title>saleLineItems</title>
<polygon fill="none" stroke="#000000" points="970.448,-697.9 970.448,-855.5 1173.0904,-855.5 1173.0904,-697.9 970.448,-697.9"/>
<text text-anchor="middle" x="1071.7692" y="-838.9" font-family="Times,serif" font-size="14.00" fill="#000000">saleLineItems</text>
<polyline fill="none" stroke="#000000" points="970.448,-830.7 1173.0904,-830.7 "/>
<text text-anchor="start" x="978.448" y="-814.1" font-family="Times,serif" font-size="14.00" fill="#000000">+ saleLineItems() : </text>
<polyline fill="none" stroke="#000000" points="970.448,-805.9 1173.0904,-805.9 "/>
<text text-anchor="start" x="978.448" y="-789.3" font-family="Times,serif" font-size="14.00" fill="#000000">~ items : ArrayList&lt;String&gt;</text>
<text text-anchor="start" x="978.448" y="-772.5" font-family="Times,serif" font-size="14.00" fill="#000000"> ~ itemsQty : ArrayList&lt;Integer&gt;</text>
<polyline fill="none" stroke="#000000" points="970.448,-764.3 1173.0904,-764.3 "/>
<text text-anchor="start" x="978.448" y="-747.7" font-family="Times,serif" font-size="14.00" fill="#000000">+ insertData() : void</text>
<polyline fill="none" stroke="#000000" points="970.448,-739.5 1173.0904,-739.5 "/>
<text text-anchor="start" x="978.448" y="-722.9" font-family="Times,serif" font-size="14.00" fill="#000000">items : ArrayList&lt;String&gt;</text>
<text text-anchor="start" x="978.448" y="-706.1" font-family="Times,serif" font-size="14.00" fill="#000000"> itemsQty : ArrayList&lt;Integer&gt;</text>
</g>
<!-- mainController&#45;&gt;saleLineItems -->
<g id="edge15" class="edge">
<title>mainController-&gt;saleLineItems</title>
<path fill="none" stroke="#595959" stroke-dasharray="5,2" d="M1071.7692,-930.0929C1071.7692,-930.0929 1071.7692,-865.7416 1071.7692,-865.7416"/>
<polygon fill="#595959" stroke="#595959" points="1071.7692,-855.7416 1076.2693,-865.7416 1071.7692,-860.7416 1071.7693,-865.7416 1071.7693,-865.7416 1071.7693,-865.7416 1071.7692,-860.7416 1067.2693,-865.7417 1071.7692,-855.7416 1071.7692,-855.7416"/>
<text text-anchor="middle" x="1075.1346" y="-899.4" font-family="Times,serif" font-size="14.00" fill="#000000">«create»</text>
</g>
<!-- mainController&#45;&gt;saleLineItems -->
<g id="edge16" class="edge">
<title>mainController-&gt;saleLineItems</title>
<path fill="none" stroke="#595959" d="M1122.4298,-918.0929C1122.4298,-918.0929 1122.4298,-865.7416 1122.4298,-865.7416"/>
<polygon fill="#595959" stroke="#595959" points="1122.4298,-867.7416 1118.4298,-861.7417 1122.4298,-855.7416 1126.4298,-861.7416 1122.4298,-867.7416"/>
<polygon fill="#595959" stroke="#595959" points="1122.4298,-930.0929 1117.9298,-920.0929 1122.4298,-925.0929 1122.4298,-920.0929 1122.4298,-920.0929 1122.4298,-920.0929 1122.4298,-925.0929 1126.9298,-920.0929 1122.4298,-930.0929 1122.4298,-930.0929"/>
<text text-anchor="middle" x="1148.4782" y="-917.4929" font-family="Times,serif" font-size="14.00" fill="#000000">lineItems</text>
<text text-anchor="middle" x="1148.4782" y="-900.6929" font-family="Times,serif" font-size="14.00" fill="#000000">1</text>
<text text-anchor="middle" x="1118.9298" y="-859.9416" font-family="Times,serif" font-size="14.00" fill="#000000">1</text>
</g>
<!-- member&#45;&gt;DBC -->
<g id="edge17" class="edge">
<title>member-&gt;DBC</title>
<path fill="none" stroke="#595959" stroke-dasharray="5,2" d="M819.0179,-739.2542C819.0179,-739.2542 819.0179,-170.1911 819.0179,-170.1911"/>
<polygon fill="#595959" stroke="#595959" points="819.0179,-160.1911 823.518,-170.191 819.018,-165.1911 819.018,-170.1911 819.018,-170.1911 819.018,-170.1911 819.018,-165.1911 814.518,-170.1911 819.0179,-160.1911 819.0179,-160.1911"/>
<text text-anchor="middle" x="843.1346" y="-330.5" font-family="Times,serif" font-size="14.00" fill="#000000">«create»</text>
</g>
<!-- member&#45;&gt;membersData -->
<g id="edge18" class="edge">
<title>member-&gt;membersData</title>
<path fill="none" stroke="#000082" d="M683.5696,-739.3963C683.5696,-739.3963 683.5696,-465.673 683.5696,-465.673"/>
<polygon fill="#000082" stroke="#000082" points="687.0697,-465.673 683.5696,-455.673 680.0697,-465.6731 687.0697,-465.673"/>
</g>
<!-- membersData&#45;&gt;DBC -->
<g id="edge19" class="edge">
<title>membersData-&gt;DBC</title>
<path fill="none" stroke="#595959" stroke-dasharray="5,2" d="M761.3486,-235C788.375,-235 808.6646,-235 808.6646,-235 808.6646,-235 808.6646,-170.4427 808.6646,-170.4427"/>
<polygon fill="#595959" stroke="#595959" points="808.6646,-160.4427 813.1647,-170.4427 808.6646,-165.4427 808.6647,-170.4427 808.6647,-170.4427 808.6647,-170.4427 808.6646,-165.4427 804.1647,-170.4428 808.6646,-160.4427 808.6646,-160.4427"/>
<text text-anchor="middle" x="713.1346" y="-182.8" font-family="Times,serif" font-size="14.00" fill="#000000">«create»</text>
</g>
<!-- membersData&#45;&gt;membersData -->
<g id="edge20" class="edge">
<title>membersData-&gt;membersData</title>
<path fill="none" stroke="#595959" stroke-dasharray="5,2" d="M722.3724,-455.7202C722.3724,-462.7284 722.3724,-467 722.3724,-467 722.3724,-467 770.1028,-467 770.1028,-467 770.1028,-467 770.1028,-195 770.1028,-195 770.1028,-195 626.7692,-195 626.7692,-195 626.7692,-195 626.7692,-203.8406 626.7692,-203.8406"/>
<polygon fill="#595959" stroke="#595959" points="626.7692,-213.8406 622.2693,-203.8405 626.7692,-208.8406 626.7693,-203.8406 626.7693,-203.8406 626.7693,-203.8406 626.7692,-208.8406 631.2693,-203.8406 626.7692,-213.8406 626.7692,-213.8406"/>
</g>
<!-- report&#45;&gt;DBC -->
<g id="edge21" class="edge">
<title>report-&gt;DBC</title>
<path fill="none" stroke="#595959" stroke-dasharray="5,2" d="M900.9699,-511.8692C900.9699,-511.8692 900.9699,-170.5026 900.9699,-170.5026"/>
<polygon fill="#595959" stroke="#595959" points="900.9699,-160.5026 905.47,-170.5026 900.9699,-165.5026 900.97,-170.5026 900.97,-170.5026 900.97,-170.5026 900.9699,-165.5026 896.47,-170.5027 900.9699,-160.5026 900.9699,-160.5026"/>
<text text-anchor="middle" x="965.1346" y="-330.5" font-family="Times,serif" font-size="14.00" fill="#000000">«create»</text>
</g>
<!-- report&#45;&gt;report -->
<g id="edge22" class="edge">
<title>report-&gt;report</title>
<path fill="none" stroke="#595959" stroke-dasharray="5,2" d="M1019.5941,-620.101C1019.5941,-627.7081 1019.5941,-633 1019.5941,-633 1019.5941,-633 1052.4498,-633 1052.4498,-633 1052.4498,-633 1052.4498,-499 1052.4498,-499 1052.4498,-499 972.5685,-499 972.5685,-499 972.5685,-499 972.5685,-501.9376 972.5685,-501.9376"/>
<polygon fill="#595959" stroke="#595959" points="972.5685,-511.9376 968.0686,-501.9375 972.5685,-506.9376 972.5686,-501.9376 972.5686,-501.9376 972.5686,-501.9376 972.5685,-506.9376 977.0686,-501.9376 972.5685,-511.9376 972.5685,-511.9376"/>
</g>
<!-- saleLineItems&#45;&gt;DBC -->
<g id="edge23" class="edge">
<title>saleLineItems-&gt;DBC</title>
<path fill="none" stroke="#595959" stroke-dasharray="5,2" d="M1060.7325,-697.8465C1060.7325,-697.8465 1060.7325,-170.2572 1060.7325,-170.2572"/>
<polygon fill="#595959" stroke="#595959" points="1060.7325,-160.2572 1065.2326,-170.2572 1060.7325,-165.2572 1060.7326,-170.2572 1060.7326,-170.2572 1060.7326,-170.2572 1060.7325,-165.2572 1056.2326,-170.2573 1060.7325,-160.2572 1060.7325,-160.2572"/>
<text text-anchor="middle" x="1105.1346" y="-330.5" font-family="Times,serif" font-size="14.00" fill="#000000">«create»</text>
</g>
<!-- saleLineItems&#45;&gt;saleLineItems -->
<g id="edge24" class="edge">
<title>saleLineItems-&gt;saleLineItems</title>
<path fill="none" stroke="#595959" stroke-dasharray="5,2" d="M1021.1086,-855.7562C1021.1086,-862.0266 1021.1086,-866 1021.1086,-866 1021.1086,-866 965.7184,-866 965.7184,-866 965.7184,-866 965.7184,-686 965.7184,-686 965.7184,-686 995.021,-686 995.021,-686 995.021,-686 995.021,-687.8574 995.021,-687.8574"/>
<polygon fill="#595959" stroke="#595959" points="995.021,-697.8574 990.5211,-687.8574 995.0211,-692.8574 995.0211,-687.8574 995.0211,-687.8574 995.0211,-687.8574 995.0211,-692.8574 999.5211,-687.8575 995.021,-697.8574 995.021,-697.8574"/>
</g>
<!-- transactionData -->
<g id="node14" class="node">
<title>transactionData</title>
<polygon fill="none" stroke="#000000" points="1244.0626,-247.5 1244.0626,-421.9 1501.4758,-421.9 1501.4758,-247.5 1244.0626,-247.5"/>
<text text-anchor="middle" x="1372.7692" y="-405.3" font-family="Times,serif" font-size="14.00" fill="#000000">transactionData</text>
<polyline fill="none" stroke="#000000" points="1244.0626,-397.1 1501.4758,-397.1 "/>
<text text-anchor="start" x="1252.0626" y="-380.5" font-family="Times,serif" font-size="14.00" fill="#000000">+ transactionData() : </text>
<polyline fill="none" stroke="#000000" points="1244.0626,-372.3 1501.4758,-372.3 "/>
<text text-anchor="start" x="1252.0626" y="-355.7" font-family="Times,serif" font-size="14.00" fill="#000000">- transactionId : ArrayList&lt;Integer&gt;</text>
<text text-anchor="start" x="1252.0626" y="-338.9" font-family="Times,serif" font-size="14.00" fill="#000000"> - items : ArrayList&lt;String[]&gt;</text>
<polyline fill="none" stroke="#000000" points="1244.0626,-330.7 1501.4758,-330.7 "/>
<text text-anchor="start" x="1252.0626" y="-314.1" font-family="Times,serif" font-size="14.00" fill="#000000">- retrieveTransactionItem(ResultSet) : void</text>
<text text-anchor="start" x="1252.0626" y="-297.3" font-family="Times,serif" font-size="14.00" fill="#000000"> - retrieveTransactionId(ResultSet) : void</text>
<polyline fill="none" stroke="#000000" points="1244.0626,-289.1 1501.4758,-289.1 "/>
<text text-anchor="start" x="1252.0626" y="-272.5" font-family="Times,serif" font-size="14.00" fill="#000000">items : ArrayList&lt;String[]&gt;</text>
<text text-anchor="start" x="1252.0626" y="-255.7" font-family="Times,serif" font-size="14.00" fill="#000000"> transactionId : ArrayList&lt;Integer&gt;</text>
</g>
<!-- transactionData&#45;&gt;DBC -->
<g id="edge25" class="edge">
<title>transactionData-&gt;DBC</title>
<path fill="none" stroke="#595959" stroke-dasharray="5,2" d="M1244.0307,-334C1164.4072,-334 1077.2978,-334 1077.2978,-334 1077.2978,-334 1077.2978,-170.4061 1077.2978,-170.4061"/>
<polygon fill="#595959" stroke="#595959" points="1077.2978,-160.4061 1081.7979,-170.406 1077.2979,-165.4061 1077.2979,-170.4061 1077.2979,-170.4061 1077.2979,-170.4061 1077.2979,-165.4061 1072.7979,-170.4061 1077.2978,-160.4061 1077.2978,-160.4061"/>
<text text-anchor="middle" x="1316.1346" y="-182.8" font-family="Times,serif" font-size="14.00" fill="#000000">«create»</text>
</g>
<!-- transactionData&#45;&gt;transactionData -->
<g id="edge26" class="edge">
<title>transactionData-&gt;transactionData</title>
<path fill="none" stroke="#595959" stroke-dasharray="5,2" d="M1488.5784,-422.2424C1488.5784,-432.2759 1488.5784,-439 1488.5784,-439 1488.5784,-439 1519.4758,-439 1519.4758,-439 1519.4758,-439 1519.4758,-224 1519.4758,-224 1519.4758,-224 1372.7692,-224 1372.7692,-224 1372.7692,-224 1372.7692,-237.4766 1372.7692,-237.4766"/>
<polygon fill="#595959" stroke="#595959" points="1372.7692,-247.4766 1368.2693,-237.4766 1372.7692,-242.4766 1372.7693,-237.4766 1372.7693,-237.4766 1372.7693,-237.4766 1372.7692,-242.4766 1377.2693,-237.4767 1372.7692,-247.4766 1372.7692,-247.4766"/>
</g>
</g>
</svg>